<?xml version="1.0" encoding="UTF-8" standalone="no" ?>
<!DOCTYPE svg PUBLIC "-//W3C//DTD SVG 1.1//EN" "http://www.w3.org/Graphics/SVG/1.1/DTD/svg11.dtd">
<svg xmlns="http://www.w3.org/2000/svg" xmlns:xlink="http://www.w3.org/1999/xlink" version="1.1" width="404" height="341" viewBox="86 66 404 341" xml:space="preserve">
<desc>Created with Fabric.js 4.6.0</desc>
<defs>
</defs>
<g transform="matrix(1 0 0 1 263.06 260.73)" id="PyCwt_4FHPTiwcuOQmo3u"  >
<filter id="SVGID_29" y="-26%" height="152%" x="-25%" width="150%" >
	<feGaussianBlur in="SourceAlpha" stdDeviation="5"></feGaussianBlur>
	<feOffset dx="1" dy="1" result="oBlur" ></feOffset>
	<feFlood flood-color="rgb(0,0,0)" flood-opacity="1"/>
	<feComposite in2="oBlur" operator="in" />
	<feMerge>
		<feMergeNode></feMergeNode>
		<feMergeNode in="SourceGraphic"></feMergeNode>
	</feMerge>
</filter>
<path style="stroke: rgb(0,0,0); stroke-width: 4; stroke-dasharray: none; stroke-linecap: butt; stroke-dashoffset: 0; stroke-linejoin: miter; stroke-miterlimit: 4; fill: rgb(255,255,255); fill-rule: nonzero; opacity: 1;filter: url(#SVGID_29);" vector-effect="non-scaling-stroke"  transform=" translate(0, 0)" d="M -54.53149 94.47005 L 2.30415 -0.7680500000000023 L 53.76344 94.47005 L 109.06298000000001 1.5361000000000047 L 55.29954000000001 -94.47004 L -56.067589999999996 -93.70199 L -109.06298 -0.7680399999999992 z" stroke-linecap="round" />
</g>
<g transform="matrix(-0.5 -0.87 0.87 -0.5 403.5 213.13)" id="AzMOTS9Vx7xWI6O5nj_25"  >
<filter id="SVGID_29" y="-31%" height="162%" x="-30%" width="160%" >
	<feGaussianBlur in="SourceAlpha" stdDeviation="5"></feGaussianBlur>
	<feOffset dx="-1.37" dy="0.37" result="oBlur" ></feOffset>
	<feFlood flood-color="rgb(0,0,0)" flood-opacity="1"/>
	<feComposite in2="oBlur" operator="in" />
	<feMerge>
		<feMergeNode></feMergeNode>
		<feMergeNode in="SourceGraphic"></feMergeNode>
	</feMerge>
</filter>
<path style="stroke: rgb(0,0,0); stroke-width: 4; stroke-dasharray: none; stroke-linecap: butt; stroke-dashoffset: 0; stroke-linejoin: miter; stroke-miterlimit: 4; fill: rgb(255,255,255); fill-opacity: 0; fill-rule: nonzero; opacity: 1;filter: url(#SVGID_29);" vector-effect="non-scaling-stroke"  transform=" translate(0, 0)" d="M -54.14747 46.851 L 54.147459999999995 47.61905 L 1.9201199999999972 -47.61905 z" stroke-linecap="round" />
</g>
<g transform="matrix(-1.33 0 0 -1 263.06 336.19)" id="VJlofEDXoGwxXJKcsZuAO"  >
<filter id="SVGID_29" y="-32%" height="164%" x="-30%" width="160%" >
	<feGaussianBlur in="SourceAlpha" stdDeviation="5"></feGaussianBlur>
	<feOffset dx="-1" dy="-1" result="oBlur" ></feOffset>
	<feFlood flood-color="rgb(0,0,0)" flood-opacity="1"/>
	<feComposite in2="oBlur" operator="in" />
	<feMerge>
		<feMergeNode></feMergeNode>
		<feMergeNode in="SourceGraphic"></feMergeNode>
	</feMerge>
</filter>
<path style="stroke: rgb(0,0,0); stroke-width: 4; stroke-dasharray: none; stroke-linecap: butt; stroke-dashoffset: 0; stroke-linejoin: miter; stroke-miterlimit: 4; fill: rgb(255,255,255); fill-opacity: 0; fill-rule: nonzero; opacity: 1;filter: url(#SVGID_29);" vector-effect="non-scaling-stroke"  transform=" translate(0, 0)" d="M -54.14747 46.851 L 54.147459999999995 47.61905 L 1.9201199999999972 -47.61905 z" stroke-linecap="round" />
</g>
<g transform="matrix(1.04 0 0 1.04 150.61 123.73)" id="NVWOrCg3NwVHxVgk6PALI"  >
<filter id="SVGID_29" y="-32%" height="164%" x="-30%" width="160%" >
	<feGaussianBlur in="SourceAlpha" stdDeviation="5"></feGaussianBlur>
	<feOffset dx="1" dy="1" result="oBlur" ></feOffset>
	<feFlood flood-color="rgb(0,0,0)" flood-opacity="1"/>
	<feComposite in2="oBlur" operator="in" />
	<feMerge>
		<feMergeNode></feMergeNode>
		<feMergeNode in="SourceGraphic"></feMergeNode>
	</feMerge>
</filter>
<path style="stroke: rgb(0,0,0); stroke-width: 4; stroke-dasharray: none; stroke-linecap: butt; stroke-dashoffset: 0; stroke-linejoin: miter; stroke-miterlimit: 4; fill: rgb(255,255,255); fill-opacity: 0; fill-rule: nonzero; opacity: 1;filter: url(#SVGID_29);" vector-effect="non-scaling-stroke"  transform=" translate(0, 0)" d="M -54.14747 46.851 L 54.147459999999995 47.61905 L 1.9201199999999972 -47.61905 z" stroke-linecap="round" />
</g>
<g transform="matrix(1.04 0 0 1.04 265.92 123.79)" id="wttUk4tXGuIHS2JdLFKNy"  >
<filter id="SVGID_29" y="-32%" height="164%" x="-30%" width="160%" >
	<feGaussianBlur in="SourceAlpha" stdDeviation="5"></feGaussianBlur>
	<feOffset dx="1" dy="1" result="oBlur" ></feOffset>
	<feFlood flood-color="rgb(0,0,0)" flood-opacity="1"/>
	<feComposite in2="oBlur" operator="in" />
	<feMerge>
		<feMergeNode></feMergeNode>
		<feMergeNode in="SourceGraphic"></feMergeNode>
	</feMerge>
</filter>
<path style="stroke: rgb(0,0,0); stroke-width: 4; stroke-dasharray: none; stroke-linecap: butt; stroke-dashoffset: 0; stroke-linejoin: miter; stroke-miterlimit: 4; fill: rgb(255,255,255); fill-rule: nonzero; opacity: 1;filter: url(#SVGID_29);" vector-effect="non-scaling-stroke"  transform=" translate(0, 0)" d="M -54.14747 46.851 L 54.147459999999995 47.61905 L 1.9201199999999972 -47.61905 z" stroke-linecap="round" />
</g>
<g transform="matrix(-0.48 0 0 -0.48 125.41 376.16)" id="bSACeKiW-4yxWc5oSFWJW"  >
<filter id="SVGID_29" y="-32%" height="164%" x="-30%" width="160%" >
	<feGaussianBlur in="SourceAlpha" stdDeviation="5"></feGaussianBlur>
	<feOffset dx="-1" dy="-1" result="oBlur" ></feOffset>
	<feFlood flood-color="rgb(0,0,0)" flood-opacity="1"/>
	<feComposite in2="oBlur" operator="in" />
	<feMerge>
		<feMergeNode></feMergeNode>
		<feMergeNode in="SourceGraphic"></feMergeNode>
	</feMerge>
</filter>
<path style="stroke: rgb(0,0,0); stroke-width: 4; stroke-dasharray: none; stroke-linecap: butt; stroke-dashoffset: 0; stroke-linejoin: miter; stroke-miterlimit: 4; fill: rgb(255,255,255); fill-opacity: 0; fill-rule: nonzero; opacity: 1;filter: url(#SVGID_29);" vector-effect="non-scaling-stroke"  transform=" translate(0, 0)" d="M -54.14747 46.851 L 54.147459999999995 47.61905 L 1.9201199999999972 -47.61905 z" stroke-linecap="round" />
</g>
<g transform="matrix(0.95 0 0 0.95 413.39 203.51)" id="MCuWuPy9OJkE9ttgliiqF"  >
<filter id="SVGID_29" y="-28%" height="156%" x="-28%" width="156%" >
	<feGaussianBlur in="SourceAlpha" stdDeviation="5"></feGaussianBlur>
	<feOffset dx="1" dy="1" result="oBlur" ></feOffset>
	<feFlood flood-color="rgb(0,0,0)" flood-opacity="1"/>
	<feComposite in2="oBlur" operator="in" />
	<feMerge>
		<feMergeNode></feMergeNode>
		<feMergeNode in="SourceGraphic"></feMergeNode>
	</feMerge>
</filter>
<path style="stroke: rgb(0,0,0); stroke-width: 8; stroke-dasharray: none; stroke-linecap: butt; stroke-dashoffset: 0; stroke-linejoin: miter; stroke-miterlimit: 4; fill: rgb(0,0,0); fill-opacity: 0; fill-rule: nonzero; opacity: 1;filter: url(#SVGID_29);" vector-effect="non-scaling-stroke"  transform=" translate(0, 0)" d="M 0 -70.2765 C 38.79263 -70.2765 70.2765 -38.79263 70.2765 0 C 70.2765 38.79263 38.79263 70.2765 0 70.2765 C -38.79263 70.2765 -70.2765 38.79263 -70.2765 0 C -70.2765 -38.79263 -38.79263 -70.2765 0 -70.2765 z" stroke-linecap="round" />
</g>
<g transform="matrix(0.9 0 0 0.9 265.09 187.48)" id="2JlgVohbQ-C9eQ5OvNACs"  >
<filter id="SVGID_29" y="-28%" height="156%" x="-28%" width="156%" >
	<feGaussianBlur in="SourceAlpha" stdDeviation="5"></feGaussianBlur>
	<feOffset dx="1" dy="1" result="oBlur" ></feOffset>
	<feFlood flood-color="rgb(0,0,0)" flood-opacity="1"/>
	<feComposite in2="oBlur" operator="in" />
	<feMerge>
		<feMergeNode></feMergeNode>
		<feMergeNode in="SourceGraphic"></feMergeNode>
	</feMerge>
</filter>
<path style="stroke: rgb(247,47,58); stroke-width: 20; stroke-dasharray: none; stroke-linecap: butt; stroke-dashoffset: 0; stroke-linejoin: miter; stroke-miterlimit: 4; fill: rgb(255,255,255); fill-rule: nonzero; opacity: 1;filter: url(#SVGID_29);" vector-effect="non-scaling-stroke"  transform=" translate(0, 0)" d="M 0 -70.2765 C 38.79263 -70.2765 70.2765 -38.79263 70.2765 0 C 70.2765 38.79263 38.79263 70.2765 0 70.2765 C -38.79263 70.2765 -70.2765 38.79263 -70.2765 0 C -70.2765 -38.79263 -38.79263 -70.2765 0 -70.2765 z" stroke-linecap="round" />
</g>
<g transform="matrix(0.31 0 0 0.31 265.58 185.08)" id="QBToEg0zgWjQhCy6HFCtR"  >
<filter id="SVGID_29" y="-38%" height="176%" x="-38%" width="176%" >
	<feGaussianBlur in="SourceAlpha" stdDeviation="5"></feGaussianBlur>
	<feOffset dx="1" dy="1" result="oBlur" ></feOffset>
	<feFlood flood-color="rgb(0,0,0)" flood-opacity="1"/>
	<feComposite in2="oBlur" operator="in" />
	<feMerge>
		<feMergeNode></feMergeNode>
		<feMergeNode in="SourceGraphic"></feMergeNode>
	</feMerge>
</filter>
<path style="stroke: rgb(255,255,255); stroke-width: 1; stroke-dasharray: none; stroke-linecap: butt; stroke-dashoffset: 0; stroke-linejoin: miter; stroke-miterlimit: 4; fill: rgb(255,255,255); fill-rule: nonzero; opacity: 1;filter: url(#SVGID_29);" vector-effect="non-scaling-stroke"  transform=" translate(0, 0)" d="M 0 -29.95392 C 16.53456 -29.95392 29.95392 -16.534570000000002 29.95392 0 C 29.95392 16.53456 16.534570000000002 29.95392 0 29.95392 C -16.53456 29.95392 -29.95392 16.534570000000002 -29.95392 0 C -29.95392 -16.53456 -16.534570000000002 -29.95392 0 -29.95392 z" stroke-linecap="round" />
</g>
<g transform="matrix(0.31 0 0 0.31 374.12 182.85)" id="TIULiPZsWPYEFSUVNAHdJ"  >
<filter id="SVGID_29" y="-38%" height="176%" x="-38%" width="176%" >
	<feGaussianBlur in="SourceAlpha" stdDeviation="5"></feGaussianBlur>
	<feOffset dx="1" dy="1" result="oBlur" ></feOffset>
	<feFlood flood-color="rgb(0,0,0)" flood-opacity="1"/>
	<feComposite in2="oBlur" operator="in" />
	<feMerge>
		<feMergeNode></feMergeNode>
		<feMergeNode in="SourceGraphic"></feMergeNode>
	</feMerge>
</filter>
<path style="stroke: rgb(255,255,255); stroke-width: 1; stroke-dasharray: none; stroke-linecap: butt; stroke-dashoffset: 0; stroke-linejoin: miter; stroke-miterlimit: 4; fill: rgb(255,255,255); fill-rule: nonzero; opacity: 1;filter: url(#SVGID_29);" vector-effect="non-scaling-stroke"  transform=" translate(0, 0)" d="M 0 -29.95392 C 16.53456 -29.95392 29.95392 -16.534570000000002 29.95392 0 C 29.95392 16.53456 16.534570000000002 29.95392 0 29.95392 C -16.53456 29.95392 -29.95392 16.534570000000002 -29.95392 0 C -29.95392 -16.53456 -16.534570000000002 -29.95392 0 -29.95392 z" stroke-linecap="round" />
</g>
<g transform="matrix(0.94 0 0 0.94 265 187.48)" id="6VbNYwA-l7P5Z1DXw9uW2"  >
<filter id="SVGID_29" y="-28%" height="156%" x="-28%" width="156%" >
	<feGaussianBlur in="SourceAlpha" stdDeviation="5"></feGaussianBlur>
	<feOffset dx="1" dy="1" result="oBlur" ></feOffset>
	<feFlood flood-color="rgb(0,0,0)" flood-opacity="1"/>
	<feComposite in2="oBlur" operator="in" />
	<feMerge>
		<feMergeNode></feMergeNode>
		<feMergeNode in="SourceGraphic"></feMergeNode>
	</feMerge>
</filter>
<path style="stroke: rgb(0,0,0); stroke-width: 21; stroke-dasharray: none; stroke-linecap: butt; stroke-dashoffset: 0; stroke-linejoin: miter; stroke-miterlimit: 4; fill: rgb(0,0,0); fill-opacity: 0; fill-rule: nonzero; opacity: 1;filter: url(#SVGID_29);" vector-effect="non-scaling-stroke"  transform=" translate(0, 0)" d="M 0 -70.2765 C 38.79263 -70.2765 70.2765 -38.79263 70.2765 0 C 70.2765 38.79263 38.79263 70.2765 0 70.2765 C -38.79263 70.2765 -70.2765 38.79263 -70.2765 0 C -70.2765 -38.79263 -38.79263 -70.2765 0 -70.2765 z" stroke-linecap="round" />
</g>
<g transform="matrix(1 0 0 1 150.61 139.7)" id="6GgAC1PZ4lhVGVW15ngTL"  >
<filter id="SVGID_29" y="-100%" height="300%" x="-100%" width="300%" >
	<feGaussianBlur in="SourceAlpha" stdDeviation="5"></feGaussianBlur>
	<feOffset dx="1" dy="1" result="oBlur" ></feOffset>
	<feFlood flood-color="rgb(0,0,0)" flood-opacity="1"/>
	<feComposite in2="oBlur" operator="in" />
	<feMerge>
		<feMergeNode></feMergeNode>
		<feMergeNode in="SourceGraphic"></feMergeNode>
	</feMerge>
</filter>
<path style="stroke: rgb(247,47,58); stroke-width: 4; stroke-dasharray: none; stroke-linecap: butt; stroke-dashoffset: 0; stroke-linejoin: miter; stroke-miterlimit: 4; fill: rgb(46,58,89); fill-rule: nonzero; opacity: 1;filter: url(#SVGID_29);" vector-effect="non-scaling-stroke"  transform=" translate(-6.91, -6.91)" d="M 0 0 L 13.82488 0 L 13.82488 13.82488 L 0 13.82488 z" stroke-linecap="round" />
</g>
</svg>